<?xml version="1.0" encoding="utf-8"?>
<svg version="1.1" id="canvas" xmlns="http://www.w3.org/2000/svg" xmlns:xlink="http://www.w3.org/1999/xlink" x="0px" y="0px"
	 viewBox="0 0 137.4 35" style="enable-background:new 0 0 137.4 35;" xml:space="preserve">
<style type="text/css">
	.st0{fill:#FFFFFF;}
</style>
<g>
	<path class="st0" d="M11.7,14.1c1,1,1.6,2.3,1.6,3.8h-2c-0.2-1-0.6-1.8-1.1-2.4c-0.8-0.8-1.7-1.1-2.9-1.1c-1.3,0-2.3,0.4-3.1,1.1
		c-0.6,0.6-0.8,1.3-0.8,2.1s0.2,1.5,0.6,1.8c0.5,0.5,1.7,1,3.8,1.7c2.6,0.8,4.3,1.6,5.1,2.4c0.6,0.7,1,1.6,1,2.8
		c0,1.5-0.5,2.7-1.4,3.7c-1.1,1.1-2.9,1.7-5.2,1.7c-2,0-3.6-0.6-4.8-1.8c-1-1-1.6-2.6-1.7-4.8h2.1c0,1.5,0.3,2.6,1,3.2
		c0.9,0.9,2.1,1.4,3.5,1.4c1.8,0,3-0.3,3.7-1c0.6-0.6,0.8-1.3,0.8-2.3c0-0.6-0.2-1.2-0.7-1.7c-0.4-0.4-1.8-1-4.2-1.8
		c-2.3-0.8-3.7-1.5-4.4-2.1C1.6,20,1.1,19,1.1,17.8c0-1.4,0.5-2.6,1.6-3.7c1.1-1.1,2.6-1.7,4.5-1.7C9.1,12.4,10.6,13,11.7,14.1z"/>
	<path class="st0" d="M23.1,7.3h-2.3V4.3h2.3V7.3z M23,31.7h-2V12.4h2V31.7z"/>
	<path class="st0" d="M32.3,14.6H30v-2.1h2.4V7.1h2v5.3h4.1v2.1h-4.1v13.4c0,0.6,0.1,1,0.4,1.3s0.8,0.4,1.4,0.4
		c0.7,0,1.5-0.1,2.5-0.4v2.1c-0.8,0.3-1.7,0.4-2.8,0.4c-1.2,0-2.1-0.3-2.7-0.8s-0.8-1.4-0.8-2.5L32.3,14.6L32.3,14.6z"/>
	<path class="st0" d="M47,7.3h-2.3V4.3H47V7.3z M46.9,31.7h-2V12.4h2V31.7z"/>
	<path class="st0" d="M56.2,14.6h-2.4v-2.1h2.4V7.1h2v5.3h4.1v2.1h-4.1v13.4c0,0.6,0.1,1,0.4,1.3s0.8,0.4,1.4,0.4
		c0.7,0,1.5-0.1,2.5-0.4v2.1c-0.8,0.3-1.7,0.4-2.8,0.4c-1.2,0-2.1-0.3-2.7-0.8s-0.8-1.4-0.8-2.5L56.2,14.6L56.2,14.6z"/>
	<path class="st0" d="M73.6,12.4c1.8,0,3.4,0.7,4.8,2.1c1.6,1.6,2.4,4.1,2.4,7.4c0,3.5-0.8,6-2.4,7.6c-1.4,1.4-3,2.1-4.8,2.1
		s-3.4-0.7-4.8-2.1c-1.6-1.6-2.4-4.1-2.4-7.6c0-3.4,0.8-5.9,2.4-7.4C70.2,13.2,71.8,12.4,73.6,12.4z M70.4,16
		c-1.2,1.2-1.8,3.2-1.8,6.1c0,2.9,0.6,5,1.8,6.2c0.9,0.9,2,1.4,3.2,1.4s2.3-0.5,3.2-1.4c1.2-1.2,1.8-3.3,1.8-6.2
		c0-2.8-0.6-4.8-1.8-6.1c-0.9-0.9-2-1.4-3.2-1.4C72.4,14.6,71.3,15,70.4,16z"/>
	<path class="st0" d="M86.6,12.4h2v12.1c0,2,0.4,3.3,1.1,4.1c0.7,0.7,1.4,1,2.4,1s1.8-0.4,2.7-1.3s1.6-2.1,2.4-3.8V12.4h2v19.3h-2
		v-3.7c-0.5,0.8-1,1.5-1.7,2.1c-1,1-2.2,1.5-3.5,1.5c-1.3,0-2.4-0.5-3.4-1.4c-1.3-1.3-2-3.2-2-5.6L86.6,12.4L86.6,12.4z"/>
	<path class="st0" d="M117.1,6.4l-8.6,25.3h-2.4l8.6-25.2h-12.2V4.3h14.6L117.1,6.4L117.1,6.4z"/>
	<path class="st0" d="M133.6,6.4c2.1,2.1,3.1,5.9,3.1,11.7c0,5.6-1,9.5-3.1,11.5c-1.4,1.4-3.1,2.1-4.9,2.1c-1.9,0-3.5-0.7-4.9-2.1
		c-2.1-2.1-3.1-5.9-3.1-11.5c0-5.7,1-9.6,3.1-11.7c1.4-1.4,3-2.1,4.9-2.1C130.5,4.3,132.2,5,133.6,6.4z M125.1,8.1
		c-1.5,1.5-2.3,4.8-2.3,10c0,5.1,0.8,8.4,2.3,9.8c1,1,2.2,1.5,3.5,1.5c1.3,0,2.5-0.5,3.5-1.5c1.5-1.5,2.3-4.8,2.3-9.8
		c0-5.1-0.8-8.5-2.3-10c-1-1-2.2-1.6-3.5-1.6C127.3,6.6,126.2,7.1,125.1,8.1z"/>
</g>
</svg>
